<svg width="12" height="35" viewBox="0 0 12 35" fill="none" xmlns="http://www.w3.org/2000/svg">
<path d="M8.89261 11.7056V6.52578C8.89261 6.12239 8.56252 5.79633 8.15415 5.79633H7.41568V2.14908H8.89261V0.690186H0.769531V2.14908H5.93876V5.79633H5.2003C4.79193 5.79633 4.46184 6.12239 4.46184 6.52578V11.7056C2.77888 12.0448 1.50799 13.5175 1.50799 15.2792V16.7381V30.5976V33.5154C1.50799 33.9188 1.83809 34.2448 2.24645 34.2448H11.108C11.5164 34.2448 11.8465 33.9188 11.8465 33.5154V30.5976V16.7381V15.2792C11.8465 13.5183 10.5756 12.0448 8.89261 11.7056ZM5.93876 7.25523H7.41568V11.6319H5.93876V7.25523ZM5.2003 13.0908H8.15415C9.37556 13.0908 10.3695 14.0727 10.3695 15.2792V16.0086H2.98492V15.2792C2.98492 14.0727 3.97888 13.0908 5.2003 13.0908ZM10.3695 29.8682H2.98492V28.4093H5.93876V26.9504H2.98492V17.4675H10.3695V29.8682ZM2.98492 32.7859V31.327H10.3695V32.7859H2.98492Z" fill="#2B7FFF"/>
</svg>
